<?xml version="1.0" encoding="UTF-8"?><svg id="a" xmlns="http://www.w3.org/2000/svg" viewBox="0 0 330.28 176.17"><defs><style>.b,.c,.d,.e,.f,.g{font-size:35px;}.b,.d,.e,.f,.g{font-family:SofiaPro-Medium, Sofia Pro;}.c,.h{font-family:SofiaPro-Black, Sofia Pro;}.d{letter-spacing:0em;}.e{letter-spacing:0em;}.h{font-size:24px;}.f{letter-spacing:0em;}.g{letter-spacing:-.01em;}.i{fill:#1d1d1b;}</style></defs><path d="M162.54,78.22c25.98,0,51.96,0,77.93,0,5.02,0,6.66,1.64,6.66,6.67,0,10.85,0,21.71,0,32.56,0,4.36-1.87,6.27-6.23,6.27-11.27,0-9.04,.91-12.88-8.5-1.16-2.85-2.89-4-6.05-3.99-39.61,.09-79.22,.09-118.82,0-3.32,0-4.96,1.32-6.18,4.25-3.21,7.72-1.55,8.51-11.34,8.24-6.17-.17-7.69-1.4-7.64-7.65,.08-10.38-.01-20.75-.02-31.13,0-4.98,1.7-6.72,6.63-6.72,25.98,0,51.96,0,77.95,0Z"/><path d="M105.35,68.12c.3-11.18,5.09-19.56,14.21-25.42,4.21-2.7,8.91-4.19,14-4.41,.91-.04,2.15-.75,2.6-1.53,12.33-21,40.22-20.98,52.86,0,.55,.91,2.25,1.5,3.45,1.56,14.24,.77,27.05,13.94,27.26,28.16,0,.46,0,.92,0,1.62H105.35Z"/><path d="M205.34,17.13l-7.33,.34c1.32-2.34,7.99-4.15,9.89-2.49,.57,.5,.91,2.02,.57,2.64-1.01,1.8-2.38,3.39-3.67,5.02-1,1.26-2.11,2.44-3.13,3.69-.28,.34-.42,.8-1.04,2.05,3.23-.23,5.84-.42,9.19-.66-3.76,2.77-7.28,4.33-11.4,3.82-2.33-.29-1.91-2.26-1.11-3.5,1.27-1.97,2.95-3.69,4.49-5.48,1.31-1.52,2.68-2.99,4.02-4.48l-.47-.95Z"/><path d="M189.85,8.04h-5.84c1.76-1.91,5.64-3.11,7.54-2.14,.57,.29,1.11,1.83,.83,2.36-.78,1.47-1.98,2.72-3.04,4.05-.96,1.21-1.95,2.4-2.93,3.6l.38,.77c1.94-.11,3.88-.22,5.81-.34l.16,.53c-2.05,.8-4.07,1.77-6.18,2.34-.92,.25-2.6-.01-2.97-.63-.42-.69,0-2.19,.51-3.06,.77-1.27,1.95-2.3,2.96-3.42,1-1.1,2.02-2.18,3.03-3.27l-.27-.79Z"/><path d="M199.77,8.18h5.98c-2.94,1.57-5.16,3.12-8.69,1.15,2.16-2.62,4.14-5.04,6.43-7.84h-4.66l-.18-.55c.57-.32,1.13-.87,1.72-.91,1.61-.09,3.23,.03,4.85,.08-.58,1.3-1,2.7-1.78,3.87-.87,1.3-2.06,2.4-3.66,4.21Z"/><text class="i" transform="translate(5.63 162.12)"><tspan class="e" x="0" y="0">D</tspan><tspan class="g" x="25.13" y="0">r</tspan><tspan class="b" x="38.36" y="0">ea</tspan><tspan class="f" x="79.27" y="0">m</tspan><tspan class="d" x="109.83" y="0">w</tspan><tspan class="b" x="136.64" y="0">ell </tspan><tspan class="c" x="182.14" y="0">Bedding</tspan><tspan class="h" x="319.02" y="0"> </tspan></text></svg>